<svg xmlns="http://www.w3.org/2000/svg" viewBox="0 0 800 400" style="enable-background:new 0 0 800 400" xml:space="preserve"><path d="M171 224c1.5 3.9 3.7 7.6 6.6 10.7 2.7 2.7 5.9 4.9 9.3 6.6 4.6 2 9.5 3.4 14.4 3.9 16.6 1.7 33.2-1.2 48-8 5.4-2.4 9.3-3.2 13.9.5 3.2 2.4 23.7 19.3 23.7 19.3 3.9 2.9 3.4 3.9 0 6.8s-12.4 9-12.4 9c-28.3 18-63.9 26.6-96.8 18.8-11.5-2.7-22.4-7.6-31.9-14.6-9.8-7.3-17.8-16.3-23.7-27.1-6.6-11.9-10.7-25.1-12.2-38.8-1.7-13.2-.7-26.3 2.7-39.3 3.2-11.7 8.8-22.7 16.6-32.2 7.8-9.3 17.3-17.1 28-22.7 11.5-6.1 23.9-10 36.8-11.5 11.5-1.5 23.2-1.2 34.4 1 9.5 2 18.5 5.4 26.8 10.7 7.3 4.6 13.4 10.7 18 18 4.4 6.8 7.1 14.4 8.3 22.4 1 8 .5 16.1-1.7 23.7-2.7 7.8-7.6 14.6-14.1 19.3-9 7.1-19.3 12.2-30.5 14.9-14.1 3.4-31.7 4.4-52.4 7.1L171 224zm-4.1-36.1c12.2 0 24.4-1 36.6-2.4 6.6-.7 13.2-2.4 19.3-4.9 4.1-2 6.8-4.1 7.6-6.3 1-2.2 1.2-4.6 1.2-7.1-.2-5.1-2.7-9.8-6.8-12.7-4.6-3.4-11.2-5.1-20-5.1-5.6 0-11.2 1.2-16.3 3.7-4.4 2.2-8.3 5.1-11.7 8.8-3.2 3.7-5.4 7.8-7.1 12.2-1.6 4.3-2.6 9-2.8 13.8zM299.3 54.3s37.1-12.2 47.3-16.6c1.5-.7 3.2-.2 3.9 1 .2.5.5 1 .5 1.5v84.6c5.6-5.1 12.2-9.5 19.3-12.7 8.5-4.4 19.5-6.6 32.4-6.6 23.2-.2 45.4 9.3 61.2 26.1 8 8.5 14.4 18.5 18.5 29.8 4.6 12.4 7.1 25.6 6.8 38.8.2 13.2-2.2 26.3-7.3 38.5-4.6 11.2-11.5 21.5-20.5 29.8-8.8 8.3-19.3 14.9-30.7 19.3-12.2 4.6-25.4 7.1-38.5 6.8-15.9.2-31.5-2.9-46.1-9.3-13.4-5.9-25.4-14.9-34.1-26.6-6.1-8.3-10.5-17.8-12.9-27.8-3.2-12.7-4.9-25.8-4.6-39V64.3c.2 0 .2-8.3 4.8-10zM391 242.6c10.7.2 21.5-3.9 29-11.7 7.6-7.8 11.5-17.8 11.5-30.5.5-11.5-3.7-22.7-11.5-31-7.6-8-18-12.4-29-12.2-5.6 0-11 1-16.1 3.4-4.9 2.2-9.3 5.4-12.7 9.3-3.7 3.9-6.6 8.5-8.5 13.7-2 5.4-2.9 11.2-2.9 17.1 0 13.2 3.9 23.4 11.5 31 7.5 7.2 18 11.3 28.7 10.9zm292.6 103.8s-34.4 11.7-44.6 15.9c-1.5.7-3.2.2-3.9-1-.2-.5-.5-1-.5-1.5v-84.6c-5.6 5.1-12.2 9.5-19.3 12.7-8.5 4.4-19.3 6.6-32.4 6.6-23.2.2-45.4-9.3-61.2-25.8-8-8.5-14.4-18.5-18.5-29.8-4.6-12.4-7.1-25.6-6.8-38.8-.2-13.2 2.2-26.3 7.3-38.5 4.6-11.2 11.5-21.5 20.5-29.8 8.8-8.3 19.3-14.9 30.7-19 12.2-4.6 25.4-7.1 38.5-6.8 15.9-.2 31.5 2.9 46.1 9 13.4 5.9 25.1 15.1 33.9 26.8 6.1 8.3 10.5 17.8 12.9 27.8 3.2 12.7 4.9 25.8 4.6 39v129c-.4 4-3.3 7.4-7.3 8.8zm-89-188.7c-10.7-.2-21.5 3.9-29 11.7-7.6 7.8-11.5 17.8-11.5 30.5-.5 11.5 3.7 22.7 11.5 31 7.6 8 18 12.4 29 12.2 5.6 0 11-1 16.1-3.4 4.9-2.2 9.3-5.4 12.7-9.3 3.7-3.9 6.6-8.5 8.5-13.7 2-5.4 2.9-11.2 2.9-17.1 0-13.2-3.9-23.4-11.5-31-7.4-7.3-17.9-11.4-28.7-10.9z" style="fill:#2979f2"/></svg>